<svg width="168" height="121" viewBox="0 0 168 121" fill="none" xmlns="http://www.w3.org/2000/svg">
<g opacity="0.5">
<circle cx="84" cy="84" r="84" fill="white" fill-opacity="0.2"/>
<circle cx="84" cy="84" r="63" fill="white" fill-opacity="0.2"/>
<circle cx="84" cy="84" r="34" fill="white" fill-opacity="0.2"/>
<path d="M93 89.7564C93 90.1678 92.842 90.5624 92.5607 90.8533C92.2794 91.1443 91.8978 91.3077 91.5 91.3077C91.1022 91.3077 90.7206 91.1443 90.4393 90.8533C90.158 90.5624 90 90.1678 90 89.7564C90 89.345 90.158 88.9504 90.4393 88.6595C90.7206 88.3686 91.1022 88.2051 91.5 88.2051C91.8978 88.2051 92.2794 88.3686 92.5607 88.6595C92.842 88.9504 93 89.345 93 89.7564ZM93 83.5513C93 83.9627 92.842 84.3573 92.5607 84.6482C92.2794 84.9391 91.8978 85.1026 91.5 85.1026C91.1022 85.1026 90.7206 84.9391 90.4393 84.6482C90.158 84.3573 90 83.9627 90 83.5513C90 83.1399 90.158 82.7453 90.4393 82.4544C90.7206 82.1634 91.1022 82 91.5 82C91.8978 82 92.2794 82.1634 92.5607 82.4544C92.842 82.7453 93 83.1399 93 83.5513ZM85.5 89.7564C85.5 90.1678 85.342 90.5624 85.0607 90.8533C84.7794 91.1443 84.3978 91.3077 84 91.3077C83.6022 91.3077 83.2206 91.1443 82.9393 90.8533C82.658 90.5624 82.5 90.1678 82.5 89.7564C82.5 89.345 82.658 88.9504 82.9393 88.6595C83.2206 88.3686 83.6022 88.2051 84 88.2051C84.3978 88.2051 84.7794 88.3686 85.0607 88.6595C85.342 88.9504 85.5 89.345 85.5 89.7564ZM85.5 83.5513C85.5 83.9627 85.342 84.3573 85.0607 84.6482C84.7794 84.9391 84.3978 85.1026 84 85.1026C83.6022 85.1026 83.2206 84.9391 82.9393 84.6482C82.658 84.3573 82.5 83.9627 82.5 83.5513C82.5 83.1399 82.658 82.7453 82.9393 82.4544C83.2206 82.1634 83.6022 82 84 82C84.3978 82 84.7794 82.1634 85.0607 82.4544C85.342 82.7453 85.5 83.1399 85.5 83.5513ZM78 89.7564C78 90.1678 77.842 90.5624 77.5607 90.8533C77.2794 91.1443 76.8978 91.3077 76.5 91.3077C76.1022 91.3077 75.7206 91.1443 75.4393 90.8533C75.158 90.5624 75 90.1678 75 89.7564C75 89.345 75.158 88.9504 75.4393 88.6595C75.7206 88.3686 76.1022 88.2051 76.5 88.2051C76.8978 88.2051 77.2794 88.3686 77.5607 88.6595C77.842 88.9504 78 89.345 78 89.7564ZM78 83.5513C78 83.9627 77.842 84.3573 77.5607 84.6482C77.2794 84.9391 76.8978 85.1026 76.5 85.1026C76.1022 85.1026 75.7206 84.9391 75.4393 84.6482C75.158 84.3573 75 83.9627 75 83.5513C75 83.1399 75.158 82.7453 75.4393 82.4544C75.7206 82.1634 76.1022 82 76.5 82C76.8978 82 77.2794 82.1634 77.5607 82.4544C77.842 82.7453 78 83.1399 78 83.5513Z" fill="#060606"/>
</g>
</svg>
