<svg width="32" height="32" viewBox="0 0 32 32" fill="none" xmlns="http://www.w3.org/2000/svg">
<path d="M19 31.25H13C7.3435 31.25 4.5145 31.25 2.758 29.4319C1 27.6153 1 24.6896 1 18.8397V15.7372C1 9.88729 1 6.96158 2.758 5.14503C4.5145 3.32692 7.3435 3.32692 13 3.32692H19C24.6565 3.32692 27.4855 3.32692 29.242 5.14503C31 6.96158 31 9.88729 31 15.7372V18.8397C31 24.6896 31 27.6153 29.242 29.4319C28.2625 30.4464 26.95 30.8948 25 31.0918M8.5 3.32692V1M23.5 3.32692V1M30.25 11.0833H14.125M1 11.0833H6.8125" stroke="#060606" stroke-width="1.5" stroke-linecap="round"/>
</svg>
