<svg width="27" height="27" viewBox="0 0 27 27" fill="none" xmlns="http://www.w3.org/2000/svg">
<path d="M13.5 17.25V21M26 13.755V15.6563C26 20.5313 26 22.97 24.535 24.485C23.0712 26 20.7137 26 16 26H11C6.28625 26 3.92875 26 2.465 24.485C1 22.97 1 20.5325 1 15.6563V13.755C1 10.8938 1 9.46375 1.65 8.27875C2.2975 7.0925 3.48375 6.3575 5.855 4.885L8.355 3.33375C10.8612 1.7775 12.115 1 13.5 1C14.885 1 16.1375 1.7775 18.645 3.33375L21.145 4.885C23.5162 6.3575 24.7025 7.0925 25.3513 8.27875" stroke="white" stroke-width="1.5" stroke-linecap="round"/>
</svg>
