<svg width="24" height="30" viewBox="0 0 24 30" fill="none" xmlns="http://www.w3.org/2000/svg">
<path d="M11.8369 0C5.25765 0 0 5.55436 0 12.2673C0 15.9718 2.24311 20.0079 4.71692 23.2844C5.95382 24.9227 7.26361 26.3538 8.4585 27.4065C9.05594 27.9328 9.62252 28.3667 10.1643 28.6875C10.7061 29.0083 11.2063 29.25 11.8369 29.25C12.4769 29.25 12.9275 28.9916 13.4369 28.6699C13.9463 28.3482 14.4861 27.9183 15.0597 27.3933C16.2069 26.3432 17.4855 24.9143 18.7017 23.2778C21.134 20.005 23.375 15.9718 23.375 12.2673C23.375 5.55436 18.146 0 11.8369 0ZM11.8369 2.25C16.9646 2.25 21.25 6.7943 21.25 12.2673C21.25 14.9282 19.3089 18.8221 17.0311 21.887C15.8923 23.4194 14.684 24.7617 13.6693 25.6904C13.162 26.1548 12.7015 26.5162 12.3495 26.7385C11.9975 26.9608 11.7245 27 11.8369 27C11.8651 27 11.5788 26.9463 11.2019 26.7231C10.825 26.5 10.3413 26.1403 9.81567 25.6772C8.76437 24.7511 7.53266 23.4109 6.37708 21.8804C4.06591 18.8192 2.125 14.9282 2.125 12.2673C2.125 6.7943 6.38018 2.25 11.8369 2.25ZM11.6875 7.875C11.6227 7.875 11.5624 7.8914 11.4987 7.89477C11.6134 8.2424 11.6875 8.61075 11.6875 9C11.6875 10.8641 10.2606 12.375 8.5 12.375C8.13237 12.375 7.78449 12.2965 7.45618 12.175C7.45299 12.2425 7.4375 12.3064 7.4375 12.375C7.4375 14.8601 9.34044 16.875 11.6875 16.875C14.0346 16.875 15.9375 14.8601 15.9375 12.375C15.9375 9.88987 14.0346 7.875 11.6875 7.875Z" fill="url(#paint0_linear_418_1594)"/>
<defs>
<linearGradient id="paint0_linear_418_1594" x1="11.6875" y1="0" x2="11.6875" y2="29.25" gradientUnits="userSpaceOnUse">
<stop/>
<stop offset="1"/>
</linearGradient>
</defs>
</svg>
